<?xml version="1.0" encoding="UTF-8" standalone="no"?>
<!-- Created with Inkscape (http://www.inkscape.org/) -->

<svg
   xmlns:dc="http://purl.org/dc/elements/1.1/"
   xmlns:cc="http://creativecommons.org/ns#"
   xmlns:rdf="http://www.w3.org/1999/02/22-rdf-syntax-ns#"
   xmlns:svg="http://www.w3.org/2000/svg"
   xmlns="http://www.w3.org/2000/svg"
   version="1.1"
   width="1000"
   height="1000"
   id="svg2">
  <defs
     id="defs4" />
  <metadata
     id="metadata7">
    <rdf:RDF>
      <cc:Work
         rdf:about="">
        <dc:format>image/svg+xml</dc:format>
        <dc:type
           rdf:resource="http://purl.org/dc/dcmitype/StillImage" />
        <dc:title></dc:title>
      </cc:Work>
    </rdf:RDF>
  </metadata>
  <g
     transform="translate(0,-52.362183)"
     id="layer1">
    <path
       d="M 499.99997,58.574783 C 223.85809,58.574783 0,281.04589 0,555.46846 0,829.89103 223.85809,1052.3622 499.99997,1052.3622 776.14187,1052.3622 1000,829.89103 1000,555.46846 1000,281.04589 776.14187,58.574783 499.99997,58.574783 z M 401.22419,210.09365 c 58.67933,-0.35651 106.25579,38.25389 156.28883,120.45719 l 55.8352,91.7562 33.58811,-105.39227 c 28.02297,-87.90864 41.65962,-105.36122 82.12155,-105.36122 26.67821,0 48.50236,8.89849 48.50236,19.78629 0,10.8878 -27.65181,99.456 -61.45911,196.8068 -58.67595,168.96084 -60.0428,179.90732 -29.57991,241.28712 29.95154,60.34962 97.87598,95.38521 108.21161,50.4953 4.04061,-17.54925 23.08119,-15.85375 45.1328,-15.85375 26.99908,0 36.53898,57.10696 -20.79475,94.49415 -80.57924,52.54553 -143.86281,-8.27497 -208.08475,-72.49796 -15.38981,-15.39007 -27.81561,-4.77925 -81.37517,44.21954 -81.22971,74.31226 -150.01722,84.92241 -235.76931,36.37322 -153.81262,-87.08214 -150.97256,-481.06903 4.07034,-564.60814 38.79258,-20.90193 72.57541,-31.77572 103.3122,-31.96247 z M 384.8496,322.7233 c -39.26161,0.16363 -76.87121,30.2542 -102.0072,92.93654 -39.77371,99.18497 -27.18673,243.12903 32.13131,286.41975 51.07694,37.27649 71.91935,38.57048 121.70288,10.80946 20.55992,-11.46492 62.00908,-44.45203 78.4862,-80.97779 27.88244,-61.80858 31.1439,-63.01009 9.19712,-157.76227 C 500.82698,372.54885 436.96046,322.50612 384.8496,322.7233 z"
       id="path3113"
       style="fill:#444444;fill-opacity:1" />
  </g>
</svg>
