<?xml version="1.0" encoding="UTF-8" standalone="no"?>
<!-- Created with Inkscape (http://www.inkscape.org/) -->

<svg
   xmlns:dc="http://purl.org/dc/elements/1.1/"
   xmlns:cc="http://creativecommons.org/ns#"
   xmlns:rdf="http://www.w3.org/1999/02/22-rdf-syntax-ns#"
   xmlns:svg="http://www.w3.org/2000/svg"
   xmlns="http://www.w3.org/2000/svg"
   version="1.1"
   width="1000"
   height="1000"
   id="svg2">
  <defs
     id="defs4" />
  <metadata
     id="metadata7">
    <rdf:RDF>
      <cc:Work
         rdf:about="">
        <dc:format>image/svg+xml</dc:format>
        <dc:type
           rdf:resource="http://purl.org/dc/dcmitype/StillImage" />
        <dc:title></dc:title>
      </cc:Work>
    </rdf:RDF>
  </metadata>
  <g
     transform="translate(0,-52.362183)"
     id="layer1">
    <path
       d="M 499.99997,58.574783 C 223.85809,58.574783 0,281.04589 0,555.46846 0,829.89103 223.85809,1052.3622 499.99997,1052.3622 776.14187,1052.3622 1000,829.89103 1000,555.46846 1000,281.04589 776.14187,58.574783 499.99997,58.574783 z M 401.22419,210.09365 c 58.67933,-0.35651 106.25579,38.25389 156.28883,120.45719 l 55.8352,91.7562 33.58811,-105.39227 c 28.02297,-87.90864 41.65962,-105.36122 82.12155,-105.36122 26.67821,0 48.50236,8.89849 48.50236,19.78629 0,10.8878 -27.65181,99.456 -61.45911,196.8068 -58.67595,168.96084 -60.0428,179.90732 -29.57991,241.28712 29.95154,60.34962 91.03902,89.48864 91.03902,43.42423 0,-11.48833 18.03042,-20.90451 40.08203,-20.90451 51.24275,0 53.24771,64.7089 3.44892,111.66674 -66.43711,62.64706 -177.19785,24.04991 -208.08475,-72.49796 -6.63173,-20.7297 -29.83592,-9.83001 -83.39548,39.16878 -81.22971,74.31226 -150.01722,84.92241 -235.76931,36.37322 -153.81262,-87.08214 -150.97256,-481.06903 4.07034,-564.60814 38.79258,-20.90193 72.57541,-31.77572 103.3122,-31.96247 z M 384.8496,322.7233 c -39.26161,0.16363 -76.87121,30.2542 -102.0072,92.93654 -39.77371,99.18497 -20.04387,243.12903 39.27417,286.41975 51.07694,37.27649 64.77649,38.57048 114.56002,10.80946 20.55992,-11.46492 55.87748,-47.89498 78.4862,-80.97779 39.31101,-57.52287 39.71533,-64.43866 9.19712,-157.76227 C 491.94459,375.02465 436.96046,322.50612 384.8496,322.7233 z"
       id="path3113"
       style="fill:#444444;fill-opacity:1" />
  </g>
</svg>
